<?xml version="1.0" encoding="utf-8" ?><svg xmlns="http://www.w3.org/2000/svg" xmlns:xlink="http://www.w3.org/1999/xlink" width="220" height="64" viewBox="80 38 1100 322"><defs><linearGradient id="gradient_0" gradientUnits="userSpaceOnUse" x1="731.61218" y1="181.748" x2="890.87891" y2="220.06911"><stop offset="0" stop-color="#569FF2"/><stop offset="1" stop-color="#6C8AF5"/></linearGradient></defs><path fill="url(#gradient_0)" d="M753.502 122.766C769.849 122.262 787.31 122.722 803.754 122.865C820.508 123.011 840.035 121.372 856.15 124.849C879.468 129.88 886.231 158.216 880.5 178.42C878.047 187.455 873.512 192.348 865.65 196.765C891.902 206.877 893.368 240.388 878.666 261.217C876.966 263.061 874.438 265.405 872.411 266.822C867.395 270.266 861.706 272.605 855.72 273.687C848.217 274.993 840.377 275.118 832.771 275.088C810.577 274.998 788.378 275.274 766.185 275.206C761.877 275.193 757.936 275.079 753.713 274.399C744.255 272.877 741.785 265.639 741.542 257.445C740.966 238.003 741.071 218.712 741.081 199.365C741.097 185.48 741.224 171.596 741.464 157.713C741.612 149.669 741.656 137.584 743.022 129.988C745.961 125.964 748.708 123.914 753.502 122.766ZM768.891 249.416C778.53 249.24 788.172 249.187 797.812 249.255C813.215 249.304 830.031 250.399 845.231 248.684C861.12 246.891 862.547 226.867 855.309 215.673C847.436 210.657 840.156 210.32 831.013 210.448L768.969 210.631C769.012 223.121 769.349 237.038 768.891 249.416ZM769.144 185.737L811.026 185.87C821.008 185.912 841.595 187.189 849.687 181.687C855.534 174.083 857.083 158.325 849.07 152.485C840.918 146.544 820.365 148.159 810.412 148.227L768.825 148.327C769.152 160.794 769.258 173.266 769.144 185.737Z"/><path fill="#6B89F6" d="M274.492 38.2725C292.747 36.7142 304.956 47.0553 319.974 55.537C336.83 65.0561 353.275 75.4337 370.388 84.4993C364.958 91.1647 358.236 97.121 352.352 104.528C331.276 92.4573 301.932 73.7095 280.877 63.6257C271.248 66.7077 236.331 87.2672 225.815 93.6259C207.474 104.715 178.56 119.668 161.941 131.811C160.637 139.504 160.638 154.654 160.556 162.782C160.387 178.833 160.339 194.884 160.414 210.936C160.458 223.197 159.859 254.602 161.742 265.345C165.155 269.138 169.335 271.36 173.692 273.865C187.938 255.109 201.47 235.691 215.814 216.983C221.084 210.11 226.471 202.757 231.142 195.49C231.074 175.776 228.53 172.926 246.068 162.761C254.666 157.516 270.163 147.918 279.103 144.763C288.875 146.991 297.952 153.071 306.518 158.257C300.212 163.629 293.768 168.837 287.193 173.875C274.912 174.018 265.919 179.125 257.259 187.678C257.095 191.119 256.899 198.606 255.245 201.216C232.565 237.003 203.152 272.079 179.623 306.956C166.389 299.835 141.861 287.878 137.227 271.92C134.744 263.37 135.456 249.143 135.478 239.87L135.528 200.746L135.529 159.227C135.459 132.792 131.704 118.03 157.945 103.163C194.378 82.5209 230.182 60.351 267.057 40.4745C269.356 39.2351 271.942 38.6898 274.492 38.2725Z"/><defs><linearGradient id="gradient_1" gradientUnits="userSpaceOnUse" x1="270.74643" y1="360.12607" x2="423.62686" y2="118.38313"><stop offset="0" stop-color="#7975F8"/><stop offset="1" stop-color="#42B9F2"/></linearGradient></defs><path fill="url(#gradient_1)" d="M384.529 93.5042C386.226 93.8218 395.436 99.2127 397.21 100.295C406.252 105.814 420.017 114.175 422.43 125.209C425.187 137.814 424.469 153.491 424.479 166.575L424.518 215.544L424.523 246.943C424.514 263.652 425.13 279.688 408.758 289.953C381.516 307.035 353.394 322.646 325.727 339.093C312.88 346.731 298.186 355.768 283.724 359.843C269.566 363.22 243.844 344.629 231.969 337.209C235.995 330.178 241.993 322.124 246.815 315.502C258.43 322.793 268.053 328.422 280.316 334.549C289.605 330.377 304.625 321.119 313.852 315.762L371.586 282.15C381.451 276.46 390.08 272.16 398.545 264.535C399.75 250.224 399.379 232.783 399.39 218.232C399.485 189.775 399.253 161.319 398.694 132.868C395.93 129.787 392.761 127.677 389.425 125.26C372.518 143.31 343.694 172.924 329.348 193.773C326.868 197.377 331.724 217.834 327.975 223.193C321.295 232.741 289.112 250.449 279.273 253.277C269.651 250.253 259.266 242.596 250.322 237.324C257.415 232.513 265.027 226.717 272.38 222.473C286.195 223.557 293.189 218.821 303.013 209.592C303.034 205.114 302.647 189.002 304.555 186.072C315.348 169.498 335.795 149.071 348.865 134.473C360.853 120.904 372.741 107.247 384.529 93.5042Z"/><path fill="#6B89F6" d="M1122.8 122.76C1131.36 121.414 1137.62 123.481 1143.16 129.986C1145.4 138.152 1145.06 175.57 1145.06 185.698L1145.04 275.082L1117.4 275.09C1117.69 239.699 1117.58 204.307 1117.08 168.919C1109.31 181.888 1075 242.96 1065.76 248.76C1061.32 251.548 1052.46 251.39 1047.55 250.23C1044.8 249.581 1042.63 248.335 1040.73 246.243C1032.27 236.929 1026 223.709 1019.56 212.906C1010.72 198.066 1001.58 183.458 992.52 168.758L992.621 191.602C992.584 219.064 992.27 247.668 992.831 275.063C983.744 274.924 974.296 275.062 965.179 275.067C964.923 241.581 964.854 208.094 964.972 174.608C965.066 160.876 964.727 145.153 966.362 131.74C967.739 120.446 993.477 120.145 999.563 128.68C1006.74 138.745 1012.52 149.166 1018.76 159.783C1030.66 180.133 1042.71 200.392 1054.93 220.555C1073.15 191.134 1089.51 160.015 1108.47 131.039C1112.53 124.824 1115.86 123.732 1122.8 122.76Z"/><path fill="#52A6F2" d="M569.43 122.937C580.048 122.106 590.511 120.762 596.525 131.005C606.065 147.253 613.912 164.357 622.335 181.206C637.877 212.579 653.58 243.872 669.443 275.084L638.04 275.103C633.408 263.259 625.592 250.374 620.384 238.506C608.199 238.99 594.486 238.68 582.188 238.656C565.344 238.727 548.499 238.672 531.656 238.489C525.79 250.705 519.822 262.872 513.754 274.989L482.967 275.028C486.427 266.756 492.365 255.713 496.468 247.516L519.318 201.577L540.574 158.597C542.382 154.922 544.162 150.708 546.176 147.188C552.675 135.825 554.121 123.564 569.43 122.937ZM543.472 213.865L576.562 213.89L608.364 213.945C601.789 200.914 595.374 187.802 589.121 174.612C586.207 168.518 579.273 153.315 575.679 148.552C565.168 170.119 554.512 192.629 543.472 213.865Z"/><path fill="#6B89F6" d="M376.676 165.656L377.041 166.053C377.692 168.721 377.533 186.64 377.478 190.206C377.175 209.988 377.922 231.254 376.525 250.941C372.805 257.147 351.916 268.044 344.742 272.324C323.439 285.283 301.852 297.767 279.997 309.767C266.955 302.719 256.037 296.589 243.628 288.544C234.635 302.068 224.729 315.163 215.485 328.508L207.89 323.734L194.855 316.238C202.325 303.601 223.475 272.13 236.149 266.603C251.983 259.697 265.983 273.578 279.899 279.051C294.975 273.73 313.134 260.341 327.348 252.075C331.53 249.643 344.495 242.469 347.195 239.706C354.962 229.691 350.226 214.701 350.451 203.248C350.724 189.397 366.966 174.62 376.676 165.656Z"/><path fill="#52A6F2" d="M278.664 88.6508C285.223 89.0929 329.239 116.091 338.383 121.325C332.698 127.94 326.301 134.644 320.359 141.08C311.769 135.895 288.805 121.348 280.027 118.777C270.83 122.006 217.937 152.758 210.415 158.959C208.401 164.289 208.657 167.463 208.671 173.081C208.974 187.491 209.714 195.374 200.784 207.564C195.032 215.416 188.975 223.14 183.072 230.862C182.629 208.945 182.507 187.022 182.708 165.101C182.763 160.908 182.424 146.504 185.155 144.263C200.054 132.038 220.681 121.994 237.39 112.099C250.43 104.377 265.473 94.9003 278.664 88.6508Z"/><path fill="#52A6F2" d="M713.531 158.765C715.583 160.819 714.906 263.742 714.89 275.067C706.125 274.901 696.975 275.033 688.177 275.051L687.628 274.701C686.016 270.272 686.901 192.564 686.926 183.34C695.644 174.986 704.514 166.793 713.531 158.765Z"/><path fill="#6B89F6" d="M937.073 158.042C939.107 162.963 938.083 261.992 938.041 274.997L910.849 275.033C910.407 273.139 910.301 256.264 910.262 253.154C909.881 229.919 909.928 206.678 910.402 183.443C918.479 175.165 928.475 165.877 937.073 158.042Z"/><path fill="#6B89F6" d="M910.591 122.941C918.583 122.469 929.91 122.765 938.155 122.749C937.878 132.21 937.709 141.674 937.647 151.139C929.542 144.327 917.937 131.779 910.476 123.94L910.591 122.941Z"/><path fill="#52A6F2" d="M687.187 123.044C696.152 123.179 705.539 123.021 714.538 123.002C714.355 132.197 714.438 141.7 714.408 150.92C709.257 147.324 691.569 128.212 687.187 123.044Z"/></svg>