<svg xmlns="http://www.w3.org/2000/svg" xmlns:xlink="http://www.w3.org/1999/xlink" width="1200" height="520" viewBox="0 0 1200 520">
  <rect width="600" height="520" fill="#F7FAFC"/>
  <rect x="600" width="600" height="520" fill="#0B1117"/>
  <g font-family="Arial, sans-serif" font-size="15" font-weight="700" letter-spacing="1.2">
    <text x="48" y="50" fill="#0B1117">LIGHT / FULL COLOR</text>
    <text x="648" y="50" fill="#F7FAFC">DARK / FULL COLOR</text>
  </g>
  <g transform="translate(48 100)">
    <image width="16" height="16" xlink:href="../ai-supply-chain-trust-mark.svg"/>
    <image x="56" width="24" height="24" xlink:href="../ai-supply-chain-trust-mark.svg"/>
    <image x="128" width="32" height="32" xlink:href="../ai-supply-chain-trust-mark.svg"/>
    <image x="216" width="64" height="64" xlink:href="../ai-supply-chain-trust-mark.svg"/>
    <image x="352" width="128" height="128" xlink:href="../ai-supply-chain-trust-mark.svg"/>
  </g>
  <g transform="translate(648 100)">
    <image width="16" height="16" xlink:href="../ai-supply-chain-trust-mark-dark.svg"/>
    <image x="56" width="24" height="24" xlink:href="../ai-supply-chain-trust-mark-dark.svg"/>
    <image x="128" width="32" height="32" xlink:href="../ai-supply-chain-trust-mark-dark.svg"/>
    <image x="216" width="64" height="64" xlink:href="../ai-supply-chain-trust-mark-dark.svg"/>
    <image x="352" width="128" height="128" xlink:href="../ai-supply-chain-trust-mark-dark.svg"/>
  </g>
  <text x="48" y="320" fill="#0B1117" font-family="Arial, sans-serif" font-size="15" font-weight="700" letter-spacing="1.2">MONOCHROME</text>
  <g transform="translate(48 360)">
    <image width="16" height="16" xlink:href="../ai-supply-chain-trust-mark-mono.svg"/>
    <image x="56" width="24" height="24" xlink:href="../ai-supply-chain-trust-mark-mono.svg"/>
    <image x="128" width="32" height="32" xlink:href="../ai-supply-chain-trust-mark-mono.svg"/>
    <image x="216" width="64" height="64" xlink:href="../ai-supply-chain-trust-mark-mono.svg"/>
    <image x="352" width="128" height="128" xlink:href="../ai-supply-chain-trust-mark-mono.svg"/>
  </g>
</svg>
