<svg xmlns="http://www.w3.org/2000/svg" height="2048" preserveAspectRatio="none" style="display: block;" version="1.1" viewBox="0 0 2048 2048" width="2048">
<path d="M 0 0 L 2048 0 L 2048 2048 L 0 2048 L 0 0 z" fill="rgb(255,255,255)" transform="translate(0,0)"></path>
<path d="M 1311.51 1039.49 C 1358.82 1005.13 1405.76 970.266 1452.34 934.919 C 1454.03 1037.7 1452.68 1143.06 1452.89 1246.09 L 1452.97 1370.2 C 1452.93 1386.15 1453.67 1414.97 1452.56 1430.33 C 1420.33 1431.05 1385.4 1430.21 1352.9 1430.17 L 1170.97 1430.24 C 1138.91 1430.22 1104.35 1429.57 1072.44 1430.64 L 895.747 1337.13 L 843.349 1309.23 C 835.911 1305.27 821.716 1298.17 814.88 1293.65 C 812.146 1293.01 812.99 1293.75 811.47 1292.07 L 812.105 1291.01 C 817.501 1289.87 822.244 1290.19 827.72 1290.3 L 1311.51 1289.99 L 1311.51 1039.49 z" fill="rgb(8,168,124)" transform="translate(0,0)"></path>
<path d="M 597.947 620.981 L 977.939 620.967 C 996.398 631.88 1020.02 643.568 1039.23 653.691 L 1160.5 717.778 C 1186.5 731.541 1214.67 745.756 1239.64 760.849 L 885.679 760.828 L 737.86 760.601 L 737.805 1011.84 C 695.104 1045.5 642.23 1084.23 597.878 1114.86 L 597.947 620.981 z" fill="rgb(13,23,31)" transform="translate(0,0)"></path>
<path d="M 1023.08 430.773 C 1026.62 431.494 1060.65 448.694 1065.41 451.059 L 1182.7 509.571 L 1365.25 600.646 L 1417.02 626.425 C 1426.21 631.02 1442.63 638.805 1450.25 644.612 C 1453.36 653.646 1452.17 742.392 1452.18 759.513 C 1405.84 791.815 1358.27 829.9 1311.68 863.293 L 1311.51 842.5 C 1311.26 810.534 1312.59 773.393 1311.15 742.348 C 1254.97 716.345 1196.54 686.005 1140.97 658.411 L 861.11 519.074 C 899.384 498.437 937.53 477.565 975.546 456.459 C 990.911 447.978 1008.25 439.653 1023.08 430.773 z" fill="rgb(8,168,124)" transform="translate(0,0)"></path>
<path d="M 736.433 1189.88 C 736.578 1189.98 736.765 1190.05 736.87 1190.19 C 739.584 1194.01 737.992 1292.97 737.966 1306.11 C 755.054 1315.6 774.992 1324.98 792.7 1333.81 L 888.088 1381.21 L 1186.7 1529.78 C 1166.66 1541.34 1143.2 1553.24 1122.63 1564.17 L 1040.98 1607.92 L 1023.75 1617.02 C 1002.63 1607.58 978.875 1594.89 957.908 1584.53 L 819.743 1515.91 L 666.657 1439.51 C 654.172 1433.26 607.848 1412.64 600.712 1405.19 C 595.745 1400.01 597.836 1305.06 597.803 1292.41 L 736.433 1189.88 z" fill="rgb(13,23,31)" transform="translate(0,0)"></path>
<path d="M 1557.94 729.891 L 1558.44 730.359 C 1560.22 735.022 1559.43 794.603 1558.08 801.858 C 1554.1 808.195 1476.18 865.442 1462.92 875.473 L 1189.7 1082.08 L 1091.44 1156.69 C 1072.57 1171.17 1044.03 1194.11 1024.59 1206.58 C 1008.18 1199.3 984.062 1185.79 967.22 1177.05 L 861.291 1122.05 C 853.585 1118.02 845.901 1113.94 838.24 1109.83 C 856.709 1095.67 875.33 1081.72 894.102 1067.97 C 905.277 1072.53 918.021 1080 928.811 1085.81 C 948.154 1096.14 967.41 1106.63 986.577 1117.28 C 994.168 1121.48 1012.44 1132.31 1019.55 1134.28 C 1025.53 1133.26 1076.03 1093.91 1085.93 1086.42 L 1187.59 1009.48 L 1557.94 729.891 z" fill="rgb(8,168,124)" transform="translate(0,0)"></path>
<path d="M 1022.14 846.897 C 1023.84 846.678 1026.36 846.589 1027.9 847.357 C 1088.7 877.712 1147.82 913.227 1208.46 943.668 C 1192.89 956.371 1172.44 970.47 1156 982.897 C 1139.59 973.411 1111.41 960.722 1094.52 951.317 C 1084.53 945.756 1034.71 919.506 1026.98 917.695 C 1018.59 922.134 998.085 938.491 989.261 945.189 L 924.063 994.09 L 634.77 1212.81 C 587.444 1248.74 538.166 1286.83 490.252 1321.6 L 490.216 1248.57 C 515.348 1227.73 548.553 1203.97 575.072 1184.08 L 701.802 1088.47 L 1022.14 846.897 z" fill="rgb(8,168,124)" transform="translate(0,0)"></path>
<metadata><recraft-signature>{"signed_by": "recraft", "signature_b64": "b7FUyDe55HNnhASyyerMKEBLv1wBxjlToVlDE9LlWltJYXa0A0gctZjvqQDH7MVNMZcJP5m5L9gL+gK19qvzBg==", "signing_algo": "Ed25519", "generation_timestamp": 1783995746, "identifier": "3b511f13-54ba-4253-a114-4f4ddf7da3b6"}</recraft-signature></metadata></svg>