<svg xmlns="http://www.w3.org/2000/svg" height="2048" preserveAspectRatio="none" style="display: block;" version="1.1" viewBox="0 0 2048 2048" width="2048">
<path d="M 0 0 L 2048 0 L 2048 2048 L 0 2048 L 0 0 z" fill="rgb(255,255,255)" transform="translate(0,0)"></path>
<path d="M 1495.57 856.755 C 1497.2 858.5 1496.99 860.669 1496.99 863.469 C 1497.13 935.649 1497.03 1007.97 1497.02 1080.14 L 1497.01 1501.84 L 551.005 1501.83 L 550.85 1443.49 C 552.479 1441.35 555.133 1438.71 557.052 1436.68 L 658.22 1332.9 C 673.39 1317.62 691.091 1299.08 706.755 1284.88 L 706.78 1358.12 L 1344.49 1358.09 L 1344.34 1007.39 C 1377.05 974.408 1409.93 941.604 1442.98 908.978 C 1458.93 893.051 1479.33 871.202 1495.57 856.755 z" fill="rgb(10,18,22)" transform="translate(0,0)"></path>
<path d="M 552.772 546.011 L 902.357 545.834 L 1498.77 545.947 C 1499.05 565.456 1498.88 585.38 1498.91 604.923 C 1481.47 624.245 1459.7 645 1441.12 663.686 L 1342.06 763.359 L 1341.95 689.634 L 1072.16 689.634 L 705.923 689.587 L 705.747 1036.81 L 604.357 1136.51 C 587.42 1153.18 569.134 1170.4 552.757 1187.36 L 552.772 546.011 z" fill="rgb(10,18,22)" transform="translate(0,0)"></path>
<path d="M 1194.97 962.698 C 1200.11 956.464 1209.68 947.589 1215.72 941.683 L 1253.86 904.457 L 1373.44 787.156 L 1516.48 645.319 C 1537.13 624.482 1557.97 603.838 1579 583.389 C 1591 571.695 1605.74 556.871 1618.55 546.345 C 1639.87 566.682 1660.95 587.27 1681.78 608.106 C 1663.04 628.134 1642.5 648.294 1623.1 667.846 C 1568.13 723.132 1512.34 777.603 1455.76 831.243 C 1352.95 929.203 1251.09 1028.16 1150.2 1128.1 C 1139.98 1138.23 1026.96 1252.09 1023.85 1252.95 C 1018.24 1247.85 1012.29 1241.66 1006.94 1236.22 C 956.3 1184.8 902.95 1135.43 852.761 1083.62 C 855.908 1080.22 859.884 1076.44 863.251 1073.21 C 880.42 1056.75 896.718 1038.58 914.31 1022.64 C 941.25 998.136 968.492 967.487 995.203 942.342 C 999.9 937.92 1019.38 917.523 1023.56 915.14 C 1028.03 880.953 1022.39 829.776 1025.36 794.329 C 1080.29 848.157 1142.08 907.563 1194.97 962.698 z" fill="rgb(29,186,134)" transform="translate(0,0)"></path>
<path d="M 1025.36 794.329 C 1080.29 848.157 1142.08 907.563 1194.97 962.698 C 1191.58 967.398 1186.82 971.85 1182.66 975.951 C 1166.48 991.932 1149.69 1007.15 1134.05 1023.7 C 1097.62 1058.27 1060.53 1097.59 1023.86 1130.82 C 1025.39 1151.58 1023.65 1180.29 1024.29 1201.88 C 1024.55 1210.47 1024.83 1245.54 1023.85 1252.95 C 1018.24 1247.85 1012.29 1241.66 1006.94 1236.22 C 956.3 1184.8 902.95 1135.43 852.761 1083.62 C 855.908 1080.22 859.884 1076.44 863.251 1073.21 C 880.42 1056.75 896.718 1038.58 914.31 1022.64 C 941.25 998.136 968.492 967.487 995.203 942.342 C 999.9 937.92 1019.38 917.523 1023.56 915.14 C 1028.03 880.953 1022.39 829.776 1025.36 794.329 z" fill="rgb(255,255,255)" transform="translate(0,0)"></path>
<path d="M 914.31 1022.64 C 949.951 1057.22 988.199 1097.73 1023.86 1130.82 C 1025.39 1151.58 1023.65 1180.29 1024.29 1201.88 C 1024.55 1210.47 1024.83 1245.54 1023.85 1252.95 C 1018.24 1247.85 1012.29 1241.66 1006.94 1236.22 C 956.3 1184.8 902.95 1135.43 852.761 1083.62 C 855.908 1080.22 859.884 1076.44 863.251 1073.21 C 880.42 1056.75 896.718 1038.58 914.31 1022.64 z" fill="rgb(10,18,22)" transform="translate(0,0)"></path>
<path d="M 1025.36 794.329 C 1080.29 848.157 1142.08 907.563 1194.97 962.698 C 1191.58 967.398 1186.82 971.85 1182.66 975.951 C 1166.48 991.932 1149.69 1007.15 1134.05 1023.7 C 1100.24 987.875 1058.72 951.276 1023.56 915.14 C 1028.03 880.953 1022.39 829.776 1025.36 794.329 z" fill="rgb(10,18,22)" transform="translate(0,0)"></path>
<path d="M 367.032 1438.24 L 759.077 1054.08 C 786.102 1027.47 1016.93 797.374 1025.36 794.329 C 1022.39 829.776 1028.03 880.953 1023.56 915.14 C 1019.38 917.523 999.9 937.92 995.203 942.342 C 968.492 967.487 941.25 998.136 914.31 1022.64 C 896.718 1038.58 880.42 1056.75 863.251 1073.21 C 859.884 1076.44 855.908 1080.22 852.761 1083.62 L 431.615 1502.43 C 409.794 1481.54 388.733 1459.41 367.032 1438.24 z" fill="rgb(29,186,134)" transform="translate(0,0)"></path>
<metadata><recraft-signature>{"signed_by": "recraft", "signature_b64": "Esr5FIVL0wLmJkmayZPpUXAgk6jMl7b7ZvUKx3w0ng93qncC3saig30wROMoCn5Vbs7BFqIiYTyQHNrRdLLgCg==", "signing_algo": "Ed25519", "generation_timestamp": 1783995746, "identifier": "e8abd714-4750-4e47-9323-b8af036c3646"}</recraft-signature></metadata></svg>