<svg xmlns="http://www.w3.org/2000/svg" height="1254" preserveAspectRatio="none" style="display: block;" version="1.1" viewBox="0 0 2048 2048" width="1254">
<path d="M 0 0 L 2048 0 L 2048 2048 L 0 2048 L 0 0 z" fill="rgb(255,255,255)" transform="translate(0,0)"></path>
<path d="M 901.469 456.196 C 912.738 455.496 927.556 455.922 939.029 455.937 L 1004.35 455.947 L 1222.41 455.9 C 1189.66 494.659 1156.45 533.024 1122.78 570.985 C 1078.88 621.225 1022.51 677.213 1001.07 741.438 C 991.677 769.581 998.993 804.655 1016.36 828.346 C 1034.92 853.665 1066.67 871.946 1092 891.196 L 1252.32 1011.1 C 1266.39 1021.5 1299.57 1043.19 1307.2 1057.23 C 1310.81 1063.84 1313 1071.12 1313.64 1078.62 C 1314.62 1089.53 1314.2 1106.34 1314.23 1117.64 L 1314.34 1188.11 L 1314.23 1287.8 C 1314.18 1306.07 1314.32 1324.3 1313.8 1342.56 C 1313.31 1359.9 1309.46 1371.32 1298.08 1384.58 C 1276.94 1409.21 1255 1433.13 1233.68 1457.59 C 1216.56 1477.35 1199.29 1496.98 1181.86 1516.46 C 1170.8 1528.89 1151.39 1553.38 1137.08 1559.94 C 1129.53 1560.69 1116.47 1560.44 1108.4 1560.49 L 1045.99 1560.41 L 837.746 1560.92 C 857.234 1534.62 879.471 1510.87 899.514 1484.81 C 952.371 1416.1 1019.24 1352.68 1057.45 1274.17 C 1071.64 1245.01 1069.38 1203.78 1052.78 1176.16 C 1048.11 1168.27 1042.22 1161.18 1035.31 1155.15 C 1025.05 1146.15 1006.46 1133.22 995.121 1124.72 L 930.24 1075.43 C 882.873 1039.87 836.389 1003.57 789.282 967.575 C 773.865 954.316 739.371 937.588 732.41 918.055 C 728.402 906.811 729.876 873.797 729.877 860.278 L 729.912 777.515 L 729.903 701.171 C 729.867 622.635 728.654 629.15 782.199 573.23 L 829.908 522.823 L 865.146 486.116 C 876.151 474.626 886.089 461.258 901.469 456.196 z" fill="rgb(5,28,38)" transform="translate(0,0)"></path>
<path d="M 796.868 1063.58 C 800.785 1065.74 811.669 1074.15 815.71 1077.18 L 850.629 1103.38 C 887.284 1130.64 924.021 1157.75 959.846 1185.75 C 1018.42 1231.46 981.039 1294.33 943.361 1339.11 C 880.833 1413.43 816.15 1486.05 753.692 1560.32 L 731.5 1560.38 C 691.202 1560.97 650.9 1561.21 610.598 1561.08 C 591.541 1561.01 572.235 1561.17 553.31 1559.89 C 542.376 1559.15 537.796 1547.53 537.736 1538.11 C 537.603 1517.54 538.096 1496.8 538.099 1476.22 L 537.977 1396.94 C 537.933 1378.87 536.547 1355.36 540.165 1337.3 C 540.838 1333.93 548.753 1323.94 551.494 1321.04 C 632.837 1234.87 716.029 1150.23 796.868 1063.58 z" fill="rgb(5,28,38)" transform="translate(0,0)"></path>
<path d="M 1320.81 455.854 C 1353.27 454.742 1388.97 456.455 1421.79 455.82 C 1446.81 455.336 1473.54 456.035 1498.67 456.221 C 1502.29 456.518 1510.44 457.253 1512.94 459.636 C 1521.44 467.729 1518.95 488.115 1518.92 499.385 L 1518.9 543.319 L 1518.89 697.362 C 1495.48 720.481 1466.64 755.566 1444 781.031 L 1294.85 948.146 L 1283.93 939.825 C 1241.19 908.422 1198.63 876.766 1156.27 844.857 C 1135.89 829.66 1114.62 815.695 1095.3 799.192 C 1082.18 787.981 1078.67 775.037 1077.68 758.503 C 1075.75 726.136 1094.63 699.474 1114.13 675.582 C 1132.58 652.647 1152.44 631.536 1172.67 610.062 L 1268.14 510.524 C 1285.71 492.4 1303.83 474.493 1320.81 455.854 z" fill="rgb(21,183,113)" transform="translate(0,0)"></path>
<metadata><recraft-signature>{"signed_by": "recraft", "signature_b64": "+Qe0gHzxhXb0HargMEuLpI1rCtV2JLViIS97/gzKV+3qbrruGHtYBk3WBsVPsIha7fhwghRTvcKnRytzDcOvDA==", "signing_algo": "Ed25519", "generation_timestamp": 1783996342, "identifier": "3bd72dc4-59af-409d-97cf-a0e7d0051888"}</recraft-signature></metadata></svg>