<svg xmlns="http://www.w3.org/2000/svg" height="1254" preserveAspectRatio="none" style="display: block;" version="1.1" viewBox="0 0 2048 2048" width="1254">
<path d="M 0 0 L 2048 0 L 2048 2048 L 0 2048 L 0 0 z" fill="rgb(255,255,255)" transform="translate(0,0)"></path>
<path d="M 1067.76 1255.28 C 1072.44 1221.75 1068.22 1194.84 1047.66 1167.35 C 1029.1 1142.54 981.991 1114.66 955.132 1095.99 C 911.551 1065.68 869.976 1033.33 827.573 1001.46 C 804.171 983.872 778.489 967.714 756.833 948.064 C 748.555 940.553 740.826 931.998 735.73 921.958 C 731.398 913.423 729.81 903.697 728.919 894.256 C 725.937 862.659 727.915 829.468 727.983 797.711 C 728.067 758.363 725.627 717.224 731.083 678.255 C 734.404 654.54 743.853 629.527 755.559 608.724 C 776.217 572.009 816.15 528.115 849.669 503.27 C 876.667 483.672 907.504 470.005 940.156 463.165 C 974.802 455.691 1002.61 456.109 1037.51 456.159 L 1118.01 456.184 L 1179.04 456.102 C 1191.15 456.098 1215.71 455.116 1226.37 459.165 C 1223.19 472.07 1191.56 501.159 1181.69 511.205 C 1132.59 561.157 1085.06 610.43 1044.32 667.664 C 1029.79 687.237 1012.74 703.558 1004.15 727.015 C 990.564 764.146 994.134 801.931 1020.53 832.284 C 1039.37 853.943 1060.57 866.439 1083.61 883.016 C 1092.42 889.352 1101.84 894.755 1110.74 900.939 C 1154.35 936.609 1201.56 966.06 1245.79 1000.85 C 1259.45 1011.59 1274.57 1020.7 1286.66 1033.27 C 1320.44 1066.81 1317.5 1107.18 1317.54 1151.04 L 1317.45 1211.82 L 1317.44 1296.12 C 1317.51 1369 1323.95 1359.25 1274.94 1412.35 C 1254.79 1434.51 1234.41 1456.47 1213.82 1478.22 C 1188.72 1504.93 1163.08 1535.11 1137.92 1560.59 L 949.292 1560.79 C 911.349 1560.72 871.038 1561.07 833.247 1559.84 C 845.657 1542.2 860.167 1528.21 873.334 1511.59 C 893.28 1486.42 914.411 1462.78 934.968 1438.14 C 959.822 1407.92 984.465 1377.53 1008.89 1346.97 C 1015.98 1338.1 1046.29 1300.62 1049.49 1293.12 C 1050.35 1285.94 1061.4 1259.33 1067.76 1255.28 z" fill="rgb(12,21,27)" transform="translate(0,0)"></path>
<path d="M 1067.76 1255.28 C 1064.92 1268.97 1058.97 1282.69 1049.49 1293.12 C 1050.35 1285.94 1061.4 1259.33 1067.76 1255.28 z" fill="rgb(204,202,201)" transform="translate(0,0)"></path>
<path d="M 795.608 1062.64 C 803.4 1065.45 872.752 1119.66 886.069 1128.86 C 910.95 1146.05 943.535 1167.89 967.233 1187.46 C 984.046 1201.35 991.286 1221.14 992.848 1242.52 C 993.666 1253.71 989.147 1275.66 983.703 1285.14 C 974.993 1300.32 959.86 1316.79 948.923 1331.22 C 905.246 1388.82 857.983 1443.28 810.177 1497.44 C 791.861 1518.19 774.794 1539.67 756.038 1560.44 L 738.974 1560.57 C 672.933 1561.04 606.89 1561.13 540.848 1560.85 C 538.944 1543.94 540.004 1496.17 540.138 1477.34 C 540.456 1432.38 539.25 1384.82 540.503 1340.1 C 543.295 1336.5 547.729 1331.92 550.99 1328.57 C 569.076 1309.96 585.168 1289.38 602.475 1270.18 C 622.302 1248.61 642.297 1227.21 662.459 1205.96 C 707.07 1158.27 749.648 1109.4 795.608 1062.64 z" fill="rgb(12,21,27)" transform="translate(0,0)"></path>
<path d="M 1361.78 459.5 C 1384.88 459.328 1502.1 457.213 1514.57 462.321 C 1517.21 472.714 1516.39 536.082 1516.25 549.812 C 1515.75 598.134 1517.31 647.594 1516.58 695.776 C 1495.73 724.493 1469.63 748.012 1445.88 773.902 C 1429.78 791.445 1413.66 810.807 1397.77 828.795 C 1383.07 845.181 1368.07 861.303 1352.79 877.152 C 1331.22 899.977 1308.86 918.241 1288.08 941.981 C 1277.73 935.152 1266.29 926.591 1256.09 919.306 C 1215.79 890.661 1177.07 858.747 1136.87 829.843 C 1126.99 822.737 1115.54 815.464 1106.43 807.553 C 1099.82 801.913 1093.97 795.451 1089 788.325 C 1070.84 761.794 1076.62 719.392 1095.27 694.797 C 1108.06 677.926 1122.07 662.344 1136.14 646.54 C 1162.57 616.812 1189.39 587.439 1216.59 558.428 C 1235.7 537.431 1254.96 516.582 1274.39 495.883 C 1285.03 484.611 1299.09 468.479 1311.57 460.025 C 1326.83 459.167 1346.21 459.588 1361.78 459.5 z" fill="rgb(7,200,113)" transform="translate(0,0)"></path>
<metadata><recraft-signature>{"signed_by": "recraft", "signature_b64": "or62xLbj2gUK7OiNiXq16WABvD1/XsNDGfWuHcfdKAF8LWGWOIkFI1gfRHNQygZhil5q+gm+6IO0CF5mLMQBDg==", "signing_algo": "Ed25519", "generation_timestamp": 1783996342, "identifier": "e7c3d249-73b0-45f4-a0cf-16e12b367c00"}</recraft-signature></metadata></svg>